<svg width="33" height="46" viewBox="0 0 33 46" fill="none" xmlns="http://www.w3.org/2000/svg">
<path d="M2.74989 8.36363H24.2112C24.4798 8.36363 24.7117 8.4613 24.907 8.65662C25.1024 8.85195 25.2 9.08389 25.2 9.35246V15.2488C25.2 15.5174 25.1024 15.7493 24.907 15.9447C24.7117 16.14 24.4798 16.2377 24.2112 16.2377H18.1317V33.0112C18.1317 33.2797 18.034 33.5117 17.8387 33.707C17.6434 33.9023 17.4114 34 17.1429 34H9.8182C9.54963 34 9.31768 33.9023 9.12235 33.707C8.92703 33.5117 8.82937 33.2797 8.82937 33.0112V16.2377H2.74989C2.48131 16.2377 2.24937 16.14 2.05404 15.9447C1.85872 15.7493 1.76105 15.5174 1.76105 15.2488V9.35246C1.76105 9.08389 1.85872 8.85195 2.05404 8.65662C2.24937 8.4613 2.48131 8.36363 2.74989 8.36363Z" fill="#F3558E"/>
<path d="M31.802 39.8858C31.8248 39.9313 31.8362 39.9826 31.8362 40.0396C31.8362 40.1421 31.7963 40.2333 31.7166 40.313C31.6482 40.3814 31.5628 40.4156 31.4602 40.4156H27.5806C27.4211 40.4156 27.2729 40.3757 27.1362 40.296C27.0109 40.2162 26.9197 40.1136 26.8628 39.9883L25.3588 36.6043H23.9231V39.9541C23.9231 40.0795 23.8775 40.1877 23.7864 40.2789C23.6952 40.37 23.587 40.4156 23.4617 40.4156H19.77C19.6447 40.4156 19.5364 40.37 19.4453 40.2789C19.3541 40.1877 19.3086 40.0795 19.3086 39.9541V28.9134C19.3086 28.7881 19.3541 28.6798 19.4453 28.5887C19.5364 28.4975 19.6447 28.452 19.77 28.452H26.4184C27.4438 28.452 28.3383 28.6172 29.1017 28.9476C29.8764 29.278 30.4689 29.7566 30.8791 30.3832C31.2893 31.0099 31.4944 31.7448 31.4944 32.588C31.4944 34.1375 30.8962 35.2598 29.6998 35.9549L31.802 39.8858ZM26.0595 33.4425C26.3101 33.4425 26.5038 33.3627 26.6406 33.2032C26.7773 33.0323 26.8457 32.8215 26.8457 32.5709C26.8457 32.3202 26.7773 32.1037 26.6406 31.9214C26.5152 31.7277 26.3215 31.6309 26.0595 31.6309H23.9231V33.4425H26.0595Z" fill="#7AD9F5"/>
</svg>
