<svg width="34" height="16" viewBox="0 0 34 16" fill="none" xmlns="http://www.w3.org/2000/svg">
<path d="M25.2718 14.8245H1.06379C1.02856 14.8245 1 14.796 1 14.7607C1 10.4214 2.69069 6.84634 5.8893 4.42203C8.84302 2.18333 12.9169 1 17.6707 1H25.2718C27.6962 1 29.7391 1.53269 31.1798 2.54043C32.8116 3.6819 33.639 5.3711 33.639 7.56105C33.639 9.76209 32.79 11.6186 31.1836 12.93C29.687 14.1518 27.5876 14.8245 25.2718 14.8245ZM-nan -nanL1.12771 14.697H25.2718C30.2002 14.697 33.5115 11.8293 33.5115 7.56108C33.5115 3.47249 30.5082 1.12758 25.2718 1.12758H17.6707C9.6903 1.12758 1.16409 4.69429 1.12771 14.697L-nan -nanZ" stroke="#F0F0F0" stroke-width="0.717342"/>
<path d="M13.141 5.26492H10.5256C10.2966 5.26492 10.111 5.45056 10.111 5.67956C10.111 5.90856 10.2966 6.0942 10.5256 6.0942H13.141C13.37 6.0942 13.5556 5.90856 13.5556 5.67956C13.5556 5.45056 13.37 5.26492 13.141 5.26492Z" fill="#F0F0F0"/>
<path d="M25.0696 5.26492H24.6869C24.4579 5.26492 24.2722 5.45056 24.2722 5.67956C24.2722 5.90856 24.4579 6.0942 24.6869 6.0942H25.0696C25.2986 6.0942 25.4842 5.90856 25.4842 5.67956C25.4842 5.45056 25.2986 5.26492 25.0696 5.26492Z" fill="#F0F0F0"/>
<path d="M27.4942 5.26492H27.1114C26.8824 5.26492 26.6968 5.45056 26.6968 5.67956C26.6968 5.90856 26.8824 6.0942 27.1114 6.0942H27.4942C27.7232 6.0942 27.9088 5.90856 27.9088 5.67956C27.9088 5.45056 27.7232 5.26492 27.4942 5.26492Z" fill="#F0F0F0"/>
<path d="M22.5818 5.26492H15.1821C14.9531 5.26492 14.7675 5.45056 14.7675 5.67956C14.7675 5.90856 14.9531 6.0942 15.1821 6.0942H22.5818C22.8108 6.0942 22.9964 5.90856 22.9964 5.67956C22.9964 5.45056 22.8108 5.26492 22.5818 5.26492Z" fill="#F0F0F0"/>
<path d="M8.80299 10.6234H6.18759C5.95859 10.6234 5.77295 10.809 5.77295 11.038C5.77295 11.267 5.95859 11.4527 6.18759 11.4527H8.80299C9.03198 11.4527 9.21762 11.267 9.21762 11.038C9.21762 10.809 9.03198 10.6234 8.80299 10.6234Z" fill="#F0F0F0"/>
<path d="M20.7321 10.6234H20.3493C20.1203 10.6234 19.9347 10.809 19.9347 11.038C19.9347 11.267 20.1203 11.4527 20.3493 11.4527H20.7321C20.9611 11.4527 21.1467 11.267 21.1467 11.038C21.1467 10.809 20.9611 10.6234 20.7321 10.6234Z" fill="#F0F0F0"/>
<path d="M23.156 10.6234H22.7733C22.5443 10.6234 22.3586 10.809 22.3586 11.038C22.3586 11.267 22.5443 11.4527 22.7733 11.4527H23.156C23.385 11.4527 23.5707 11.267 23.5707 11.038C23.5707 10.809 23.385 10.6234 23.156 10.6234Z" fill="#F0F0F0"/>
<path d="M18.2445 10.6234H10.8448C10.6158 10.6234 10.4302 10.809 10.4302 11.038C10.4302 11.267 10.6158 11.4527 10.8448 11.4527H18.2445C18.4735 11.4527 18.6591 11.267 18.6591 11.038C18.6591 10.809 18.4735 10.6234 18.2445 10.6234Z" fill="#F0F0F0"/>
<path d="M23.0289 7.11461H20.4135C20.1845 7.11461 19.9989 7.30025 19.9989 7.52925C19.9989 7.75824 20.1845 7.94388 20.4135 7.94388H23.0289C23.2579 7.94388 23.4436 7.75824 23.4436 7.52925C23.4436 7.30025 23.2579 7.11461 23.0289 7.11461Z" fill="#F0F0F0"/>
<path d="M27.6853 7.11461H25.0699C24.8409 7.11461 24.6553 7.30025 24.6553 7.52925C24.6553 7.75824 24.8409 7.94388 25.0699 7.94388H27.6853C27.9143 7.94388 28.0999 7.75824 28.0999 7.52925C28.0999 7.30025 27.9143 7.11461 27.6853 7.11461Z" fill="#F0F0F0"/>
<path d="M30.1098 7.11461H29.727C29.498 7.11461 29.3124 7.30025 29.3124 7.52925C29.3124 7.75824 29.498 7.94388 29.727 7.94388H30.1098C30.3388 7.94388 30.5244 7.75824 30.5244 7.52925C30.5244 7.30025 30.3388 7.11461 30.1098 7.11461Z" fill="#F0F0F0"/>
<path d="M6.57033 7.11461H6.18759C5.95859 7.11461 5.77295 7.30025 5.77295 7.52925C5.77295 7.75824 5.95859 7.94388 6.18759 7.94388H6.57033C6.79932 7.94388 6.98496 7.75824 6.98496 7.52925C6.98496 7.30025 6.79932 7.11461 6.57033 7.11461Z" fill="#F0F0F0"/>
<path d="M8.99538 7.11461H8.61263C8.38364 7.11461 8.198 7.30025 8.198 7.52925C8.198 7.75824 8.38364 7.94388 8.61263 7.94388H8.99538C9.22437 7.94388 9.41001 7.75824 9.41001 7.52925C9.41001 7.30025 9.22437 7.11461 8.99538 7.11461Z" fill="#F0F0F0"/>
<path d="M18.4361 7.11461H11.0365C10.8075 7.11461 10.6218 7.30025 10.6218 7.52925C10.6218 7.75824 10.8075 7.94388 11.0365 7.94388H18.4361C18.6651 7.94388 18.8508 7.75824 18.8508 7.52925C18.8508 7.30025 18.6651 7.11461 18.4361 7.11461Z" fill="#F0F0F0"/>
<path d="M13.2692 9.73038H15.8846C16.1136 9.73038 16.2992 9.54474 16.2992 9.31574C16.2992 9.08674 16.1136 8.9011 15.8846 8.9011H13.2692C13.0402 8.9011 12.8545 9.08674 12.8545 9.31574C12.8545 9.54474 13.0402 9.73038 13.2692 9.73038Z" fill="#F0F0F0"/>
<path d="M8.61242 9.73038H11.2278C11.4568 9.73038 11.6425 9.54474 11.6425 9.31574C11.6425 9.08674 11.4568 8.9011 11.2278 8.9011H8.61242C8.38342 8.9011 8.19778 9.08674 8.19778 9.31574C8.19778 9.54474 8.38342 9.73038 8.61242 9.73038Z" fill="#F0F0F0"/>
<path d="M6.18834 9.73038H6.57108C6.80008 9.73038 6.98572 9.54474 6.98572 9.31574C6.98572 9.08674 6.80008 8.9011 6.57108 8.9011H6.18834C5.95934 8.9011 5.7737 9.08674 5.7737 9.31574C5.7737 9.54474 5.95934 9.73038 6.18834 9.73038Z" fill="#F0F0F0"/>
<path d="M29.7273 9.73038H30.11C30.339 9.73038 30.5247 9.54474 30.5247 9.31574C30.5247 9.08674 30.339 8.9011 30.11 8.9011H29.7273C29.4983 8.9011 29.3126 9.08674 29.3126 9.31574C29.3126 9.54474 29.4983 9.73038 29.7273 9.73038Z" fill="#F0F0F0"/>
<path d="M27.3022 9.73038H27.685C27.914 9.73038 28.0996 9.54474 28.0996 9.31574C28.0996 9.08674 27.914 8.9011 27.685 8.9011H27.3022C27.0732 8.9011 26.8876 9.08674 26.8876 9.31574C26.8876 9.54474 27.0732 9.73038 27.3022 9.73038Z" fill="#F0F0F0"/>
<path d="M17.8614 9.73038L25.261 9.73038C25.49 9.73038 25.6757 9.54474 25.6757 9.31574C25.6757 9.08674 25.49 8.9011 25.261 8.9011L17.8614 8.9011C17.6324 8.9011 17.4467 9.08674 17.4467 9.31574C17.4467 9.54474 17.6324 9.73038 17.8614 9.73038Z" fill="#F0F0F0"/>
</svg>
