<svg width="76" height="70" viewBox="0 0 76 70" fill="none" xmlns="http://www.w3.org/2000/svg">
<path d="M24.6077 3.18296C24.0935 3.16548 23.5757 3.35157 23.1682 3.70031C22.7607 4.04905 22.4969 4.53188 22.4347 5.04262L21.44 13.2174C21.4046 13.4729 21.4206 13.7285 21.4872 13.9692C21.5538 14.2099 21.6696 14.431 21.828 14.6195C21.9863 14.808 22.1839 14.9602 22.4093 15.0672C22.6347 15.1741 22.8834 15.2337 23.1408 15.2425C23.3983 15.2513 23.6593 15.2091 23.9087 15.1184C24.1582 15.0276 24.391 14.8901 24.5937 14.7139C24.7963 14.5378 24.9647 14.3264 25.089 14.0922C25.2134 13.858 25.2912 13.6056 25.3179 13.3498L26.3115 5.17595C26.3737 4.6652 26.2292 4.16833 25.9097 3.79459C25.5902 3.42085 25.1219 3.20085 24.6077 3.18296Z" fill="#F0F0F0"/>
<path d="M35.9408 9.45176L29.9494 14.5792C29.5521 14.9192 29.2868 15.3806 29.2119 15.8618C29.137 16.343 29.2587 16.8047 29.5501 17.1452C29.8415 17.4857 30.2788 17.6772 30.7658 17.6776C31.2529 17.6779 31.7497 17.4871 32.147 17.1471L38.1384 12.0197C38.5357 11.6796 38.801 11.2183 38.8759 10.737C38.9508 10.2558 38.8291 9.79415 38.5377 9.45363C38.2463 9.11311 37.809 8.9216 37.322 8.92125C36.835 8.9209 36.3381 9.11173 35.9408 9.45176Z" fill="#F0F0F0"/>
<path d="M17.0878 14.279L12.3267 8.71551C12.1703 8.53282 11.9823 8.38035 11.7733 8.26679C11.5644 8.15324 11.3386 8.08082 11.1088 8.05368C10.879 8.02653 10.6498 8.0452 10.4342 8.1086C10.2186 8.172 10.0208 8.2789 9.85222 8.4232C9.68361 8.56749 9.54744 8.74636 9.45149 8.94958C9.35554 9.1528 9.30169 9.3764 9.29302 9.60761C9.28434 9.83882 9.321 10.0731 9.40092 10.2971C9.48083 10.5211 9.60243 10.7304 9.75877 10.9131L14.5199 16.4766C14.6763 16.6592 14.8643 16.8117 15.0733 16.9253C15.2822 17.0388 15.508 17.1112 15.7378 17.1384C15.9676 17.1655 16.1968 17.1469 16.4124 17.0835C16.628 17.0201 16.8258 16.9132 16.9944 16.7689C17.163 16.6246 17.2992 16.4457 17.3951 16.2425C17.4911 16.0393 17.5449 15.8157 17.5536 15.5844C17.5623 15.3532 17.5256 15.1189 17.4457 14.895C17.3658 14.671 17.2442 14.4616 17.0878 14.279Z" fill="#F0F0F0"/>
<path d="M71.2425 47.0817C71.5966 46.7787 71.8157 46.3474 71.8518 45.8827C71.8879 45.418 71.7379 44.958 71.4348 44.6038L69.5008 42.344C67.775 40.3304 66.4187 38.0277 65.4946 35.5421L64.8704 33.8502C64.2506 32.183 63.3412 30.6383 62.1841 29.2873L57.1629 23.4199C56.1318 22.215 54.3736 21.9402 53.1596 22.794C52.8134 23.0338 52.5234 23.346 52.3096 23.709C52.0959 24.072 51.9635 24.477 51.9217 24.8962C51.8848 25.3008 51.9304 25.7086 52.0556 26.0951C52.1809 26.4816 52.3832 26.8386 52.6504 27.1447L53.8503 28.5468C54.0215 28.7409 54.1109 28.9936 54.1 29.252C54.0891 29.5105 53.9785 29.7547 53.7916 29.9335C53.6951 30.0213 53.5819 30.0889 53.4587 30.1322C53.3356 30.1754 53.205 30.1935 53.0747 30.1853C52.9444 30.1772 52.8171 30.1429 52.7003 30.0846C52.5835 30.0263 52.4796 29.9451 52.3947 29.8459L49.3347 26.2702C48.3035 25.0653 46.5454 24.7905 45.3314 25.6443C44.9848 25.8839 44.6945 26.1961 44.4809 26.5594C44.2672 26.9226 44.1353 27.3281 44.0944 27.7475C44.0576 28.1515 44.1032 28.5589 44.2283 28.9448C44.3535 29.3308 44.5555 29.6874 44.8223 29.9931L46.0231 31.3962C46.1943 31.5903 46.2838 31.843 46.2728 32.1014C46.2619 32.3599 46.1514 32.6041 45.9644 32.7829C45.8679 32.8707 45.7547 32.9383 45.6315 32.9816C45.5084 33.0248 45.3778 33.0429 45.2475 33.0348C45.1172 33.0266 44.9899 32.9923 44.8731 32.934C44.7563 32.8757 44.6524 32.7945 44.5676 32.6953L40.8755 28.3811C39.8443 27.1762 38.0861 26.9013 36.8722 27.7551C36.5352 27.9882 36.2513 28.29 36.0394 28.6407C35.8274 28.9914 35.6921 29.3831 35.6424 29.7899C35.5921 30.194 35.6265 30.6042 35.7435 30.9943C35.8605 31.3844 36.0574 31.7458 36.3218 32.0557L37.563 33.5061C37.7342 33.7001 37.8237 33.9528 37.8127 34.2113C37.8018 34.4697 37.6913 34.7139 37.5043 34.8927C37.4078 34.9806 37.2946 35.0481 37.1714 35.0914C37.0483 35.1347 36.9177 35.1527 36.7874 35.1446C36.6571 35.1364 36.5298 35.1022 36.413 35.0438C36.2962 34.9855 36.1923 34.9044 36.1074 34.8051L26.0729 23.0797C25.0417 21.8748 23.2835 21.5999 22.0696 22.4537C21.7255 22.6934 21.4373 23.0046 21.2246 23.366C21.0119 23.7274 20.8797 24.1305 20.8371 24.5477C20.7996 24.9531 20.8449 25.3619 20.9703 25.7493C21.0957 26.1366 21.2985 26.4945 21.5664 26.8011L37.3457 45.2393C37.5168 45.4333 37.6063 45.686 37.5954 45.9444C37.5844 46.2029 37.4739 46.4471 37.287 46.6259C37.1904 46.7138 37.0772 46.7813 36.9541 46.8246C36.8309 46.8679 36.7003 46.8859 36.57 46.8778C36.4398 46.8696 36.3124 46.8353 36.1956 46.777C36.0788 46.7187 35.9749 46.6375 35.8901 46.5383L35.5938 46.1921C35.3802 45.9413 35.1065 45.7486 34.7984 45.632C34.4902 45.5153 34.1575 45.4786 33.8314 45.5252C33.5052 45.5718 33.1962 45.7002 32.9331 45.8985C32.6699 46.0967 32.4613 46.3583 32.3265 46.659C31.9889 47.3854 31.8855 48.199 32.0308 48.9869C32.8141 53.002 40.1612 56.2774 42.9266 57.2011C46.9189 58.1906 49.0758 58.9481 51.2735 61.5161L51.4423 61.7133C51.7454 62.0674 52.1767 62.2867 52.6414 62.3229C53.1061 62.359 53.5661 62.2091 53.9202 61.9061L71.2425 47.0817Z" fill="#F0F0F0"/>
<path d="M11.7329 25.0296C12.2462 25.0384 12.7598 24.8468 13.1631 24.4961C13.5664 24.1455 13.8271 23.6639 13.889 23.155C13.9509 22.6461 13.8091 22.1508 13.4941 21.7757C13.1791 21.4006 12.7161 21.1758 12.2049 21.1497L3.9164 20.8665C3.4031 20.8578 2.88946 21.0494 2.48614 21.4C2.08283 21.7506 1.82214 22.2323 1.76023 22.7411C1.69832 23.25 1.84015 23.7454 2.15516 24.1205C2.47018 24.4955 2.93316 24.7204 3.44435 24.7465L11.7329 25.0296Z" fill="#F0F0F0"/>
<path d="M8.39396 37.4748L14.3854 32.3474C14.7827 32.0074 15.048 31.546 15.1229 31.0648C15.1978 30.5836 15.0761 30.1219 14.7847 29.7814C14.4933 29.4409 14.0559 29.2493 13.5689 29.249C13.0819 29.2486 12.5851 29.4395 12.1878 29.7795L6.19637 34.9069C5.79904 35.247 5.53376 35.7083 5.45887 36.1896C5.38398 36.6708 5.50563 37.1324 5.79705 37.473C6.08847 37.8135 6.52579 38.005 7.01281 38.0053C7.49982 38.0057 7.99664 37.8149 8.39396 37.4748Z" fill="#F0F0F0"/>
</svg>
